<?xml version="1.0" encoding="UTF-8" standalone="no"?>
<svg
   id="Layer_1"
   style="enable-background:new 0 0 30 30;"
   version="1.1"
   viewBox="0 0 30 30"
   xml:space="preserve"
   sodipodi:docname="favicon.svg"
   inkscape:version="1.1.1 (3bf5ae0d25, 2021-09-20)"
   xmlns:inkscape="http://www.inkscape.org/namespaces/inkscape"
   xmlns:sodipodi="http://sodipodi.sourceforge.net/DTD/sodipodi-0.dtd"
   xmlns="http://www.w3.org/2000/svg"
   xmlns:svg="http://www.w3.org/2000/svg"><defs
     id="defs9" /><sodipodi:namedview
     id="namedview7"
     pagecolor="#ffffff"
     bordercolor="#666666"
     borderopacity="1.0"
     inkscape:pageshadow="2"
     inkscape:pageopacity="0.0"
     inkscape:pagecheckerboard="0"
     showgrid="false"
     inkscape:zoom="29.933333"
     inkscape:cx="14.983296"
     inkscape:cy="14.983296"
     inkscape:window-width="1920"
     inkscape:window-height="1057"
     inkscape:window-x="-8"
     inkscape:window-y="-8"
     inkscape:window-maximized="1"
     inkscape:current-layer="Layer_1" /><path
     d="M15,3C8.373,3,3,8.373,3,15c0,6.627,5.373,12,12,12s12-5.373,12-12C27,8.373,21.627,3,15,3z M17,17l-9,5l5-9l9-5L17,17z"
     id="path2" /><circle
     cx="15"
     cy="15"
     r="1"
     id="circle4" /><path
     style="fill:#ffffff;stroke-width:0.0234521;stroke-linejoin:round;stroke-opacity:0.862745"
     d="m 21.885679,8.1128854 c -2.971541,1.6068236 -5.913486,3.2682586 -8.869841,4.9029526 -1.637415,2.956095 -3.2916928,5.905006 -4.9141102,8.868079 0.1051131,0.01083 0.2347233,-0.126417 0.346394,-0.163894 2.8488272,-1.572336 5.6910062,-3.156678 8.5360402,-4.735861 1.634666,-2.95702 3.2974,-5.899144 4.903344,-8.8716681 z m -6.856252,5.8825386 c 0.576992,-0.02417 1.067438,0.55576 0.970777,1.121503 -0.02705,0.58019 -0.649144,1.002366 -1.204238,0.877209 -0.638148,-0.101207 -0.998079,-0.882278 -0.708149,-1.446574 0.164418,-0.356521 0.548946,-0.583086 0.94161,-0.552138 z"
     id="path85" /></svg>
