<?xml version="1.0" standalone="no"?>
<!DOCTYPE svg PUBLIC "-//W3C//DTD SVG 20010904//EN"
 "http://www.w3.org/TR/2001/REC-SVG-20010904/DTD/svg10.dtd">
<svg version="1.0" xmlns="http://www.w3.org/2000/svg"
 width="700.000000pt" height="700.000000pt" viewBox="0 0 700.000000 700.000000"
 preserveAspectRatio="xMidYMid meet">
<metadata>
Created by potrace 1.14, written by Peter Selinger 2001-2017
</metadata>
<g transform="translate(0.000000,700.000000) scale(0.100000,-0.100000)"
fill="#000000" stroke="none">
<path d="M3260 6290 c-239 -23 -507 -82 -720 -160 -259 -94 -582 -277 -795
-450 -461 -373 -802 -899 -950 -1462 -146 -558 -120 -1142 76 -1681 93 -256
277 -580 449 -792 93 -115 269 -294 385 -392 272 -229 647 -432 982 -532 587
-174 1208 -157 1776 50 274 100 606 292 832 482 116 98 292 277 385 392 163
201 338 503 435 754 74 192 139 458 167 681 16 135 16 505 0 640 -79 645 -365
1226 -824 1676 -220 216 -451 381 -723 514 -291 143 -554 223 -870 265 -143
19 -472 27 -605 15z m1867 -1167 c-2 -5 -264 -477 -582 -1049 l-577 -1042
-1042 -577 c-572 -318 -1045 -580 -1050 -583 -5 -3 -7 -1 -4 4 3 5 265 478
583 1050 l578 1042 1046 581 c575 319 1047 581 1049 581 2 0 1 -3 -1 -7z"/>
<path d="M3405 3711 c-141 -66 -180 -249 -77 -363 143 -159 402 -60 402 152 0
94 -57 179 -142 214 -50 21 -134 20 -183 -3z"/>
</g>
</svg>
